<svg width="40" height="40" viewBox="0 0 40 40" fill="none" xmlns="http://www.w3.org/2000/svg">
<g clip-path="url(#clip0_15865_93005)">
<rect width="40" height="40" rx="20" fill="black"/>
<path d="M55.9466 0H-15.9465V40.4454H55.9466V0Z" fill="url(#paint0_radial_15865_93005)"/>
<g clip-path="url(#clip1_15865_93005)">
<path d="M22.532 24.0821C24.8364 22.7516 25.6296 19.8113 24.3036 17.5147C22.9777 15.2181 20.0347 14.4349 17.7303 15.7653C15.4259 17.0958 14.6328 20.0361 15.9587 22.3327C17.2846 24.6293 20.2276 25.4125 22.532 24.0821Z" fill="#F5F6F8"/>
<path d="M30.8813 16.4026C32.2808 21.8089 29.7592 26.8945 25.5604 29.3248C20.6878 32.1371 14.5525 30.8283 11.2876 26.281C11.1311 26.0632 10.9823 25.8374 10.8415 25.6088C11.1772 25.4264 11.5126 25.245 11.8459 25.0631C11.9994 25.3106 12.1637 25.5511 12.3355 25.7802C14.9105 29.2103 19.3926 30.4826 23.3318 29.1013C23.8285 28.9301 24.3118 28.7158 24.774 28.4604C24.7832 28.455 24.7925 28.4497 24.8027 28.4447C24.8383 28.4241 24.8746 28.4049 24.9109 28.384C24.9372 28.3688 24.9646 28.3538 24.991 28.3386L24.9898 28.3366C25.1413 28.2475 25.2908 28.155 25.4369 28.0566C28.8856 25.844 30.545 21.2641 29.1212 17.418C29.9789 21.7336 27.9112 25.6931 24.5747 27.6176L24.574 27.6163C20.671 29.8697 15.6974 28.8645 13.0055 25.2778C12.8574 25.0805 12.7162 24.874 12.5828 24.6612C12.9782 24.4452 13.3696 24.2315 13.7566 24.0194C14.6243 25.4218 15.9837 26.5289 17.5528 27.0798C23.0167 29.0363 28.6413 24.1991 27.1967 18.5291C27.6777 22.3215 25.1663 25.9339 21.3585 26.5933C18.4328 27.1312 15.4124 25.6321 14.0217 23.0163L13.7105 23.2047C12.0509 24.1979 10.2796 25.3142 8.62674 26.3175C7.17604 27.2146 4.98151 28.5701 3.57329 29.4829C4.0164 29.2568 4.45611 29.0249 4.89667 28.7959C6.58195 27.9034 8.35183 26.9551 10.1057 26.0065C10.2633 26.2657 10.4308 26.5209 10.6074 26.7674C12.2901 29.1114 14.7786 30.7406 17.6153 31.3555C19.5474 31.7747 21.5305 31.6962 23.3974 31.1488C24.2062 30.9156 24.9743 30.5965 25.6929 30.2026C25.788 30.1512 25.8823 30.0985 25.9759 30.0445L25.9747 30.0425C30.5125 27.3868 32.9507 21.7382 30.8802 16.4006L30.8813 16.4026Z" fill="url(#paint1_linear_15865_93005)"/>
<path d="M35.1355 11.183C33.4899 12.0499 31.8207 12.9427 30.1578 13.8406C30.0003 13.5813 29.8327 13.3261 29.6551 13.0793C29.4122 12.7407 29.1465 12.4099 28.8662 12.0964C27.1014 10.129 24.6824 8.80892 22.0548 8.37802C20.5259 8.12784 18.9655 8.18826 17.4699 8.54046C17.448 8.5452 17.4266 8.5506 17.4051 8.556C17.3587 8.567 17.3127 8.57866 17.2661 8.5907C16.3074 8.82904 15.4014 9.18754 14.5632 9.64692C14.4701 9.69717 14.3785 9.74835 14.2869 9.80122L14.288 9.80319C9.75056 12.4579 7.31102 18.1073 9.38219 23.4444C7.98267 18.0382 10.5047 12.9532 14.7042 10.5225C19.1439 7.96009 24.8375 8.85685 28.2436 12.6537C28.5039 12.9447 28.7508 13.2521 28.9763 13.5667C29.1328 13.7845 29.2823 14.0099 29.4224 14.2389C29.087 14.4203 28.752 14.6023 28.4176 14.784C28.2642 14.5364 28.1002 14.2966 27.928 14.0668C27.672 13.7253 27.3917 13.3995 27.0957 13.0984C24.4212 10.3754 20.4443 9.51268 16.9301 10.7475C16.4284 10.9208 15.9411 11.1373 15.4747 11.3961C15.4648 11.4018 15.4556 11.4071 15.446 11.4118C15.417 11.4285 15.3877 11.4446 15.3587 11.4613C15.331 11.4773 15.303 11.4926 15.2746 11.509L15.2758 11.511C15.1243 11.6001 14.9741 11.693 14.828 11.7914C11.3793 14.004 9.71959 18.5832 11.1434 22.4293C10.2857 18.1137 12.3544 14.1545 15.6909 12.23L15.6916 12.2313C19.2158 10.1966 23.659 10.7945 26.498 13.6851C26.7686 13.9605 27.0248 14.2583 27.2594 14.5702C27.4075 14.7675 27.5487 14.974 27.6821 15.1867C27.2894 15.4012 26.898 15.6149 26.5083 15.8285C25.6407 14.4262 24.2812 13.3191 22.7125 12.7688C17.249 10.813 11.6244 15.6502 13.0682 21.3189C12.5876 17.5271 15.1 13.9149 18.9068 13.2553C21.8322 12.7168 24.8529 14.2165 26.2433 16.8317L26.5544 16.6433C28.144 15.6931 29.9242 14.5725 31.5076 13.6085C33.1296 12.6081 34.8265 11.5531 36.4281 10.5172C35.9962 10.7368 35.5673 10.9617 35.1373 11.1845L35.1355 11.183Z" fill="url(#paint2_linear_15865_93005)"/>
</g>
</g>
<defs>
<radialGradient id="paint0_radial_15865_93005" cx="0" cy="0" r="1" gradientUnits="userSpaceOnUse" gradientTransform="translate(49.1691 25.3907) rotate(-159.321) scale(61.4552 51.8177)">
<stop stop-color="#014F3D"/>
<stop offset="1" stop-color="#00140F"/>
</radialGradient>
<linearGradient id="paint1_linear_15865_93005" x1="22.1271" y1="30.4137" x2="26.7821" y2="18.4692" gradientUnits="userSpaceOnUse">
<stop stop-color="white"/>
<stop offset="1" stop-color="white" stop-opacity="0.15"/>
</linearGradient>
<linearGradient id="paint2_linear_15865_93005" x1="17.747" y1="9.3519" x2="13.0979" y2="21.668" gradientUnits="userSpaceOnUse">
<stop stop-color="white"/>
<stop offset="1" stop-color="white" stop-opacity="0.15"/>
</linearGradient>
<clipPath id="clip0_15865_93005">
<rect width="40" height="40" rx="20" fill="white"/>
</clipPath>
<clipPath id="clip1_15865_93005">
<rect width="37.9373" height="23.3776" fill="white" transform="translate(-2.27173 19.3615) rotate(-30)"/>
</clipPath>
</defs>
</svg>
